<svg width="35" height="41" viewBox="0 0 35 41" fill="none" xmlns="http://www.w3.org/2000/svg">
<line x1="34.9268" y1="0.5" x2="1.47753" y2="0.500003" stroke="white"/>
<line x1="34.9268" y1="10.8478" x2="1.47753" y2="10.8478" stroke="white"/>
<path d="M6.27876 23.5295H7.11967L9.09695 28.359H9.16513L11.1424 23.5295H11.9833V29.3477H11.3242V24.9272H11.2674L9.44922 29.3477H8.81286L6.99467 24.9272H6.93786V29.3477H6.27876V23.5295ZM13.396 29.3477V23.5295H16.9073V24.1545H14.1005V26.1204H16.7255V26.7454H14.1005V28.7227H16.9528V29.3477H13.396ZM22.7908 23.5295V29.3477H22.109L18.9386 24.7795H18.8817V29.3477H18.1772V23.5295H18.859L22.0408 28.109H22.0977V23.5295H22.7908ZM28.0188 23.5295H28.7234V27.3817C28.7234 27.7795 28.6296 28.1346 28.4421 28.4471C28.2565 28.7577 27.9942 29.003 27.6552 29.1829C27.3162 29.3609 26.9184 29.4499 26.462 29.4499C26.0056 29.4499 25.6078 29.3609 25.2688 29.1829C24.9298 29.003 24.6665 28.7577 24.479 28.4471C24.2934 28.1346 24.2006 27.7795 24.2006 27.3817V23.5295H24.9052V27.3249C24.9052 27.609 24.9677 27.8619 25.0927 28.0835C25.2177 28.3031 25.3957 28.4764 25.6268 28.6033C25.8597 28.7283 26.1381 28.7908 26.462 28.7908C26.7859 28.7908 27.0643 28.7283 27.2972 28.6033C27.5302 28.4764 27.7082 28.3031 27.8313 28.0835C27.9563 27.8619 28.0188 27.609 28.0188 27.3249V23.5295Z" fill="white"/>
</svg>
