<svg width="114" height="41" viewBox="0 0 114 41" fill="none" xmlns="http://www.w3.org/2000/svg">
<path d="M47.0788 8.54545V34H40.9265V8.54545H47.0788ZM58.4189 23.1122V34H52.3411V14.9091H58.1206V18.4141H58.3319C58.7545 17.2457 59.4754 16.3301 60.4945 15.6673C61.5137 14.9961 62.7276 14.6605 64.1362 14.6605C65.4786 14.6605 66.6427 14.9629 67.6288 15.5678C68.6231 16.1644 69.3937 17.0013 69.9406 18.0785C70.4957 19.1474 70.7692 20.3986 70.7609 21.832V34H64.6831V23.0252C64.6914 21.9646 64.4221 21.136 63.8752 20.5394C63.3366 19.9428 62.5868 19.6445 61.6256 19.6445C60.9876 19.6445 60.4241 19.7854 59.9352 20.0671C59.4547 20.3406 59.0818 20.7341 58.8166 21.2479C58.5598 21.7616 58.4272 22.383 58.4189 23.1122ZM86.6997 14.9091V19.3835H74.656V14.9091H86.6997ZM77.1791 10.3352H83.2569V27.9968C83.2569 28.3697 83.3149 28.6721 83.4309 28.9041C83.5551 29.1278 83.7333 29.2894 83.9653 29.3888C84.1973 29.48 84.4749 29.5256 84.798 29.5256C85.0301 29.5256 85.2745 29.5049 85.5314 29.4634C85.7965 29.4137 85.9954 29.3723 86.1279 29.3391L87.0477 33.7266C86.7577 33.8094 86.3475 33.913 85.8172 34.0373C85.2952 34.1616 84.6696 34.2403 83.9404 34.2734C82.5153 34.3397 81.2931 34.174 80.2739 33.7763C79.263 33.3703 78.4883 32.7405 77.9497 31.8871C77.4194 31.0336 77.1625 29.9606 77.1791 28.668V10.3352Z" fill="white"/>
<path d="M103.518 25.7596V14.9091H109.583V34H103.791V30.4453H103.592C103.17 31.6136 102.449 32.5417 101.43 33.2294C100.419 33.9089 99.1967 34.2486 97.7632 34.2486C96.4623 34.2486 95.3188 33.9503 94.3328 33.3537C93.3468 32.7571 92.5803 31.9244 92.0335 30.8555C91.4866 29.7783 91.209 28.5188 91.2007 27.0771V14.9091H97.2785V25.8839C97.2868 26.9196 97.5602 27.7358 98.0988 28.3324C98.6374 28.929 99.3707 29.2273 100.299 29.2273C100.904 29.2273 101.446 29.0947 101.927 28.8295C102.416 28.5561 102.801 28.1625 103.083 27.6488C103.373 27.1268 103.518 26.497 103.518 25.7596Z" fill="url(#paint0_linear_1_299)"/>
<path d="M0 11H29V23C29 30.732 22.732 37 15 37H0V11Z" fill="url(#paint1_linear_1_299)"/>
<defs>
<linearGradient id="paint0_linear_1_299" x1="39" y1="27.5538" x2="123.921" y2="2.54267" gradientUnits="userSpaceOnUse">
<stop stop-color="#054861"/>
<stop offset="1" stop-color="#BAB46D"/>
</linearGradient>
<linearGradient id="paint1_linear_1_299" x1="1.13746e-06" y1="28.4731" x2="34.5695" y2="22.265" gradientUnits="userSpaceOnUse">
<stop stop-color="#054861"/>
<stop offset="1" stop-color="#BAB46D"/>
</linearGradient>
</defs>
</svg>
