<svg width="210" height="66" viewBox="0 0 210 66" fill="none" xmlns="http://www.w3.org/2000/svg">
<path d="M95.8494 14.3636V58H85.3026V14.3636H95.8494ZM115.29 39.3352V58H104.871V25.2727H114.778V31.2812H115.14C115.865 29.2784 117.101 27.7088 118.848 26.5724C120.595 25.4219 122.676 24.8466 125.091 24.8466C127.392 24.8466 129.388 25.3651 131.078 26.402C132.782 27.4247 134.103 28.8594 135.041 30.706C135.993 32.5384 136.461 34.6832 136.447 37.1406V58H126.028V39.1861C126.042 37.3679 125.581 35.9474 124.643 34.9247C123.72 33.902 122.434 33.3906 120.787 33.3906C119.693 33.3906 118.727 33.6321 117.889 34.1151C117.065 34.5838 116.426 35.2585 115.971 36.1392C115.531 37.0199 115.304 38.0852 115.29 39.3352ZM163.771 25.2727V32.9432H143.125V25.2727H163.771ZM147.45 17.4318H157.869V47.7088C157.869 48.348 157.968 48.8665 158.167 49.2642C158.38 49.6477 158.686 49.9247 159.083 50.0952C159.481 50.2514 159.957 50.3295 160.511 50.3295C160.909 50.3295 161.328 50.294 161.768 50.223C162.223 50.1378 162.563 50.0668 162.791 50.0099L164.367 57.5312C163.87 57.6733 163.167 57.8509 162.258 58.0639C161.363 58.277 160.291 58.4119 159.041 58.4688C156.598 58.5824 154.502 58.2983 152.755 57.6165C151.022 56.9205 149.694 55.8409 148.771 54.3778C147.862 52.9148 147.421 51.0753 147.45 48.8594V17.4318Z" fill="white"/>
<path d="M192.602 43.8736V25.2727H203V58H193.071V51.9062H192.73C192.005 53.9091 190.77 55.5 189.022 56.679C187.289 57.8437 185.194 58.4261 182.737 58.4261C180.507 58.4261 178.547 57.9148 176.856 56.892C175.166 55.8693 173.852 54.4418 172.914 52.6094C171.977 50.7628 171.501 48.6037 171.487 46.1321V25.2727H181.906V44.0866C181.92 45.8622 182.389 47.2614 183.312 48.2841C184.236 49.3068 185.493 49.8182 187.084 49.8182C188.12 49.8182 189.051 49.5909 189.875 49.1364C190.713 48.6676 191.373 47.9929 191.856 47.1122C192.353 46.2173 192.602 45.1378 192.602 43.8736Z" fill="url(#paint0_linear_707_4)"/>
<path d="M0 10H62V40C62 53.8071 50.8071 65 37 65H0V10Z" fill="url(#paint1_linear_707_4)"/>
<defs>
<linearGradient id="paint0_linear_707_4" x1="146" y1="33" x2="210" y2="11" gradientUnits="userSpaceOnUse">
<stop offset="0.351358" stop-color="#054861"/>
<stop offset="1" stop-color="#BAB46D"/>
</linearGradient>
<linearGradient id="paint1_linear_707_4" x1="2.43182e-06" y1="46.9624" x2="73.8578" y2="33.5574" gradientUnits="userSpaceOnUse">
<stop stop-color="#1C717E"/>
<stop offset="1" stop-color="#C67B4E"/>
</linearGradient>
</defs>
</svg>
