<svg width="295" height="295" viewBox="0 0 295 295" fill="none" xmlns="http://www.w3.org/2000/svg">
<path d="M123.921 269.928L128.683 286.534L131.615 271.421L134.563 271.992L130.563 292.614L127.342 291.989L122.502 274.935L111.624 288.94L108.417 288.318L112.417 267.697L115.351 268.266L112.419 283.38L123.044 269.758L123.921 269.928Z" fill="white"/>
<path d="M85.2964 259.454C85.4699 259.082 85.7059 258.761 86.0045 258.491C86.2989 258.23 86.6278 258.033 86.9913 257.901C87.3547 257.769 87.7376 257.71 88.1399 257.726C88.5334 257.737 88.916 257.829 89.2877 258.003L100.159 263.078C100.53 263.251 100.851 263.487 101.121 263.786C101.383 264.08 101.579 264.409 101.711 264.773C101.843 265.136 101.904 265.514 101.893 265.908C101.877 266.31 101.783 266.697 101.609 267.069L95.2641 280.661C95.0906 281.033 94.8567 281.349 94.5622 281.61C94.2637 281.88 93.9348 282.077 93.5754 282.2C93.212 282.333 92.8335 282.393 92.44 282.382C92.0336 282.375 91.6445 282.285 91.2728 282.112L80.402 277.037C80.0303 276.863 79.7159 276.625 79.4587 276.322C79.1886 276.023 78.9874 275.692 78.8553 275.329C78.7191 274.974 78.6587 274.596 78.6741 274.193C78.6853 273.8 78.7777 273.417 78.9512 273.045L85.2964 259.454ZM92.5431 279.391L98.8883 265.799L88.0174 260.724L81.6723 274.316L92.5431 279.391Z" fill="white"/>
<path d="M67.1987 246.976C66.0974 246.117 65.019 245.753 63.9637 245.884C62.9083 246.015 61.9513 246.631 61.0927 247.732L57.22 252.7C56.7998 253.239 56.5015 253.78 56.3253 254.324C56.1491 254.868 56.0971 255.403 56.1693 255.93C56.2279 256.458 56.4089 256.965 56.7124 257.449C57.0159 257.933 57.4372 258.385 57.9763 258.806L64.0299 263.525L73.2523 251.695L67.1987 246.976ZM77.4669 251.173L64.5519 267.739L56.13 261.174C55.2443 260.483 54.5553 259.723 54.0629 258.894C53.5568 258.066 53.2515 257.202 53.1472 256.304C53.0291 255.407 53.1145 254.495 53.4034 253.569C53.6845 252.637 54.1673 251.731 54.8518 250.853L58.7244 245.886C59.4089 245.008 60.169 244.319 61.0046 243.819C61.8326 243.312 62.6989 243.003 63.6034 242.891C64.4943 242.781 65.406 242.866 66.3384 243.147C67.2571 243.43 68.1593 243.917 69.045 244.607L77.4669 251.173Z" fill="white"/>
<path d="M40.3547 246.759L30.5044 235.041L32.8031 233.109L40.721 242.528L45.3182 238.663L38.5597 230.623L40.8583 228.691L47.6168 236.731L52.2028 232.875L44.2849 223.457L46.5835 221.524L56.4338 233.242L40.3547 246.759Z" fill="white"/>
<path d="M21.5311 205.557C24.1113 204.169 26.1741 204.479 27.7194 206.487L33.3288 198.979L34.9038 201.908L29.3569 209.315L32.4721 215.108L39.8645 211.132L41.2868 213.777L22.7865 223.726L17.3401 213.599C15.7305 210.606 16.4265 208.302 19.4282 206.688L21.5311 205.557ZM29.8273 216.53L25.8796 209.189C25.5003 208.484 25.0726 208.06 24.5965 207.917C24.1203 207.774 23.5296 207.892 22.8244 208.271L20.9795 209.263C20.2742 209.642 19.85 210.07 19.7069 210.546C19.5638 211.022 19.6819 211.613 20.0612 212.318L24.0089 219.659L29.8273 216.53Z" fill="white"/>
<path d="M28.729 186.974L29.5243 189.869L9.26833 195.432L8.47311 192.536L20.8368 176.047L5.1293 180.36L4.33408 177.464L24.59 171.902L25.3852 174.798L13.0215 191.287L28.729 186.974Z" fill="white"/>
<path d="M1.56032 152.594L22.2021 143.606L22.33 146.606L17.5796 148.67L17.9833 158.139L22.8922 159.792L23.0201 162.792L1.68824 155.594L1.56032 152.594ZM14.9345 157.126L14.6287 149.954L5.53155 153.92L14.9345 157.126Z" fill="white"/>
<path d="M17.4959 115.694L15.5614 117.253L12.6139 113.37L10.0948 117.563L8.01784 116.202L10.8179 112.206L6.04659 111.109L6.6913 108.704L11.3716 110.14L10.9456 105.279L13.4246 105.14L13.5089 110.03L18.0076 108.127L18.9029 110.445L14.2461 112.033L17.4959 115.694Z" fill="white"/>
<path d="M22.3118 77.7243C21.9666 77.5028 21.6841 77.2288 21.4643 76.9022C21.2363 76.5703 21.0852 76.2181 21.0109 75.8456C20.9283 75.4678 20.9188 75.0847 20.9824 74.6962C21.043 74.2942 21.1841 73.9206 21.4055 73.5754L27.5585 63.9826C27.78 63.6374 28.0581 63.3575 28.3929 63.143C28.7248 62.915 29.0797 62.7598 29.4574 62.6772C29.827 62.5894 30.2102 62.58 30.6069 62.6488C30.9954 62.7124 31.3622 62.8549 31.7075 63.0763L33.9885 64.5394L32.3672 67.0671L30.0862 65.6039L23.9331 75.1967L36.559 83.2953L42.7121 73.7026L40.4433 72.2473L42.0646 69.7197L44.3334 71.1749C44.6786 71.3964 44.9652 71.673 45.1932 72.0049C45.413 72.3315 45.5641 72.6837 45.6467 73.0615C45.7292 73.4393 45.736 73.8265 45.6672 74.2232C45.6036 74.6117 45.4611 74.9786 45.2397 75.3239L39.0867 84.9166C38.8652 85.2618 38.5885 85.5484 38.2567 85.7764C37.9301 85.9962 37.5779 86.1473 37.2001 86.2299C36.8223 86.3124 36.4391 86.3219 36.0506 86.2583C35.6539 86.1895 35.283 86.0443 34.9377 85.8229L22.3118 77.7243Z" fill="white"/>
<path d="M55.5764 43.5408C57.6429 45.6174 57.9349 47.6828 56.4521 49.737L65.2486 52.9693L62.8917 55.3149L54.209 52.1139L49.5471 56.7534L55.4678 62.7029L53.3393 64.8211L38.5219 49.9318L46.6726 41.8205C49.0815 39.4233 51.488 39.4326 53.8921 41.8483L55.5764 43.5408ZM47.4288 54.6249L53.3368 48.7455C53.9044 48.1806 54.1888 47.6496 54.19 47.1524C54.1912 46.6552 53.9094 46.1228 53.3445 45.5552L51.8669 44.0704C51.302 43.5028 50.771 43.2184 50.2738 43.2172C49.7766 43.216 49.2442 43.4978 48.6766 44.0627L42.7687 49.9421L47.4288 54.6249Z" fill="white"/>
<path d="M63.4085 28.1359L75.6281 45.2218L73.1855 46.9687L60.966 29.8828L63.4085 28.1359Z" fill="white"/>
<path d="M83.576 16.2603L100.14 31.5077L97.4479 32.8374L93.6394 29.3269L85.1416 33.5235L85.6141 38.6815L82.9216 40.0112L80.8835 17.59L83.576 16.2603ZM84.8364 30.3251L91.2721 27.1468L83.9681 20.4287L84.8364 30.3251Z" fill="white"/>
<path d="M101.84 8.61079L118.089 4.3395L118.853 7.24378L112.18 8.99772L116.757 26.4092L113.852 27.1726L109.276 9.76112L102.603 11.5151L101.84 8.61079Z" fill="white"/>
<path d="M132.877 2.33729L135.116 23.2235L132.13 23.5435L129.891 2.6573L132.877 2.33729Z" fill="white"/>
<path d="M152.115 22.7208L145.189 1.2989L148.406 1.47722L153.973 19.0974L161.467 2.20104L164.671 2.37855L155.42 22.904L152.115 22.7208Z" fill="white"/>
<path d="M186.899 7.1374L189.128 29.5405L186.233 28.7427L185.724 23.5882L176.587 21.0703L173.509 25.2363L170.614 24.4385L184.004 6.33961L186.899 7.1374ZM178.486 18.4788L185.406 20.3857L184.42 10.511L178.486 18.4788Z" fill="white"/>
<path d="M221.639 21.8562L234.399 30.3123L232.74 32.8155L222.483 26.0182L219.166 31.0245L227.92 36.8265L226.262 39.3296L217.507 33.5277L214.197 38.5218L224.454 45.319L222.795 47.8222L210.035 39.3661L221.639 21.8562Z" fill="white"/>
<path d="M248.373 60.2123L248.228 57.732L253.101 57.5895L251.152 53.1031L253.466 52.2031L255.092 56.8039L258.757 53.5578L260.34 55.48L256.451 58.4547L260.655 60.9323L259.328 63.0309L255.299 60.258L254.234 65.0252L251.828 64.4073L253.241 59.6947L248.373 60.2123Z" fill="white"/>
<path d="M279.841 86.9328L260.799 95.8016L259.531 93.0795L278.573 84.2107L279.841 86.9328Z" fill="white"/>
<path d="M265.944 108.517L265.167 105.616L285.456 100.178L286.234 103.078L273.769 119.492L289.503 115.275L290.28 118.175L269.991 123.614L269.213 120.713L281.678 104.299L265.944 108.517Z" fill="white"/>
<path d="M292.378 131.742L293.19 148.524L290.191 148.669L289.857 141.778L271.876 142.648L271.73 139.648L289.712 138.778L289.379 131.887L292.378 131.742Z" fill="white"/>
<path d="M292.567 161.596L292.084 164.56L274.315 161.67L272.389 173.512L290.158 176.402L289.676 179.366L271.907 176.476C271.502 176.41 271.129 176.27 270.788 176.056C270.456 175.844 270.177 175.581 269.951 175.267C269.725 174.953 269.565 174.601 269.47 174.209C269.374 173.828 269.359 173.434 269.425 173.029L271.351 161.188C271.417 160.783 271.557 160.41 271.77 160.069C271.983 159.737 272.246 159.459 272.56 159.233C272.873 159.007 273.221 158.846 273.603 158.749C273.994 158.655 274.392 158.64 274.797 158.706L292.567 161.596Z" fill="white"/>
<path d="M284.648 195.92L264.784 189.087L265.761 186.248L285.625 193.08L284.648 195.92Z" fill="white"/>
<path d="M280.373 207.257L272.591 222.148L269.93 220.757L273.125 214.642L257.17 206.304L258.561 203.643L274.516 211.981L277.712 205.866L280.373 207.257Z" fill="white"/>
<path d="M264.117 234.428L247.167 222.022L248.94 219.598L265.891 232.005L264.117 234.428Z" fill="white"/>
<path d="M236.093 234.931L256.596 244.232L254.297 246.492L237.521 238.745L244.969 255.662L242.681 257.911L233.732 237.252L236.093 234.931Z" fill="white"/>
<path d="M224.201 271.141L206.135 257.707L208.674 256.103L212.828 259.197L220.841 254.136L219.833 249.055L222.372 247.452L226.74 269.538L224.201 271.141ZM221.479 257.285L215.41 261.118L223.375 267.037L221.479 257.285Z" fill="white"/>
<path d="M184.261 275.673L186.576 276.576L184.673 281.065L189.564 281.164L189.417 283.643L184.557 283.202L185.979 287.886L183.572 288.524L182.49 283.749L178.485 286.537L177.131 284.456L181.331 281.949L177.442 278.994L179.008 277.064L182.702 280.314L184.261 275.673Z" fill="white"/>
</svg>
